PathFileType	4	(X/Y/Z)	C:/Users/opensim2020/Desktop/walking_exp_matlab/subject06_walking21_straight_02.trc																																																																																																																																		
DataRate	CameraRate	NumFrames	NumMarkers	Units	OrigDataRate	OrigDataStartFrame	OrigNumFrames																																																																																																																														
100	100	8	44	mm	100	1347	172																																																																																																																														
Frame#	Time	LFHD			RFHD			LBHD			RBHD			C7			T10			CLAV			STRN			RBAK			LSHO			LUPA			LELB			LFRM			LWRA			LWRB			LFIN			RSHO			RUPA			RELB			RFRM			RWRA			RWRB			RFIN			LASI			RASI			LPSI			RPSI			LTHI			LKNE			LTIB			LANK			LHEE			LTOE			RTHI			RKNE			RTIB			RANK			RHEE			RTOE			*39			*40			*41			*42			*43		
		X1	Y1	Z1	X2	Y2	Z2	X3	Y3	Z3	X4	Y4	Z4	X5	Y5	Z5	X6	Y6	Z6	X7	Y7	Z7	X8	Y8	Z8	X9	Y9	Z9	X10	Y10	Z10	X11	Y11	Z11	X12	Y12	Z12	X13	Y13	Z13	X14	Y14	Z14	X15	Y15	Z15	X16	Y16	Z16	X17	Y17	Z17	X18	Y18	Z18	X19	Y19	Z19	X20	Y20	Z20	X21	Y21	Z21	X22	Y22	Z22	X23	Y23	Z23	X24	Y24	Z24	X25	Y25	Z25	X26	Y26	Z26	X27	Y27	Z27	X28	Y28	Z28	X29	Y29	Z29	X30	Y30	Z30	X31	Y31	Z31	X32	Y32	Z32	X33	Y33	Z33	X34	Y34	Z34	X35	Y35	Z35	X36	Y36	Z36	X37	Y37	Z37	X38	Y38	Z38	X39	Y39	Z39	X40	Y40	Z40	X41	Y41	Z41	X42	Y42	Z42	X43	Y43	Z43	X44	Y44	Z44
																																																																																																																																					
87	0.86	-348.92682	1639.32397	-1520.05005	-360.11133	1622.49109	-1389.54553	-480.87262	1583.56262	-1532.72656	-490.76016	1572.63171	-1405.24976	-485.67651	1421.96741	-1478.9082	-512.20074	1092.06311	-1463.96777	-372.25247	1348.01257	-1473.93079	-329.19644	1174.0094	-1484.20264	-557.18481	1247.54602	-1406.80737	-426.64423	1379.95789	-1637.46985	-392.76285	1182.88367	-1713.32813	-364.66025	1074.31274	-1729.53455	-249.54787	983.23749	-1749.71472	-123.64389	961.71338	-1707.74634	-158.29825	907.05737	-1737.17029	-69.53674	892.02722	-1741.85022	-429.8562	1375.38733	-1313.88184	-508.16693	1188.55115	-1234.85095	-525.17542	1068.30298	-1218.81091	-542.5589	950.17969	-1194.99854	-514.39276	797.80957	-1207.69421	-574.11975	816.25519	-1180.67468	-560.83295	732.87341	-1170.17102	-346.49945	933.3114	-1586.92517	-322.72757	942.6347	-1365.98193	-499.66989	961.35431	-1536.30078	-474.8299	962.33923	-1370.89185	-472.33936	630.90662	-1631.2887	-517.44611	471.0239	-1608.34851	-671.86951	260.29651	-1602.15247	-759.98444	111.11946	-1555.22131	-805.33337	115.92624	-1513.43677	-636.92993	37.94411	-1539.91553	-298.47852	617.66571	-1293.92126	-247.55975	505.60809	-1327.22852	-199.11722	248.07939	-1332.92468	-138.45708	71.20217	-1377.29321	-164.27803	38.45291	-1425.83765	17.92621	80.53241	-1377.53882	-454.21609	1673.85803	-1467.40881	NaN	NaN	NaN	NaN	NaN	NaN	NaN	NaN	NaN	NaN	NaN	NaN
88	0.87	-335.01608	1639.0575	-1518.99756	-346.04959	1622.19165	-1388.42188	-467.13824	1583.31506	-1531.87793	-476.7337	1572.28687	-1404.10107	-471.48181	1421.28235	-1477.62561	-496.66779	1091.44104	-1463.21216	-357.55829	1347.85706	-1472.65833	-313.77365	1174.03333	-1483.01208	-542.12573	1246.66577	-1405.71277	-412.25201	1379.59583	-1636.19861	-378.67679	1182.59302	-1711.99939	-350.99387	1073.97241	-1728.19165	-235.36032	983.74652	-1748.40552	-109.41505	963.20618	-1706.17908	-143.18271	908.1803	-1735.32251	-54.58134	894.07593	-1740.21533	-415.32446	1375.00269	-1312.63013	-492.76773	1187.85217	-1233.47241	-509.33362	1067.58044	-1217.53613	-526.12738	949.38812	-1193.87903	-498.07431	797.12927	-1206.47888	-557.72821	815.46185	-1179.31799	-544.37305	732.12012	-1168.76648	-329.59082	933.18304	-1585.64404	-307.00061	942.7384	-1364.7843	-483.74963	960.93359	-1535.73962	-459.04892	962.36066	-1370.09607	-456.73767	629.8678	-1630.37476	-501.74054	469.94528	-1607.68555	-662.22681	263.6358	-1602.14453	-755.27856	117.49611	-1556.25378	-800.15137	124.18004	-1514.50208	-636.3587	37.96051	-1539.86145	-281.4476	618.96362	-1294.54993	-229.89952	507.67624	-1328.93396	-188.12276	246.66273	-1333.94885	-134.68449	68.49701	-1379.25635	-161.51949	38.66488	-1427.94971	22.09579	70.86702	-1379.74292	-440.34744	1673.57678	-1466.25073	NaN	NaN	NaN	NaN	NaN	NaN	NaN	NaN	NaN	NaN	NaN	NaN
89	0.88	-321.02237	1639.23938	-1518.03577	-331.87244	1622.42676	-1387.25623	-453.19193	1583.22876	-1530.67297	-462.58588	1572.20654	-1402.8136	-457.35223	1421.01489	-1476.07434	-480.47766	1091.03796	-1462.36365	-342.82693	1348.15845	-1471.39355	-298.29184	1174.42371	-1481.7334	-527.09808	1245.93604	-1404.63171	-397.93057	1379.56042	-1634.78882	-364.51776	1182.51563	-1710.60352	-337.33987	1073.95898	-1726.97644	-221.62288	984.07501	-1747.05249	-95.73109	964.10565	-1704.60706	-129.10533	908.9986	-1734.03015	-40.36781	895.41382	-1738.55835	-400.638	1374.97034	-1311.203	-477.19937	1187.3728	-1232.03455	-493.18436	1067.05432	-1216.13403	-509.58157	948.80731	-1192.53186	-481.12576	796.6142	-1205.32947	-540.78766	814.83472	-1177.82361	-527.20642	731.60382	-1167.37561	-313.20825	933.02185	-1584.48755	-291.21954	943.11981	-1363.70642	-467.67685	960.76208	-1535.12866	-443.27707	962.87958	-1368.78979	-440.54721	628.80243	-1629.39978	-484.98331	468.80087	-1606.71753	-651.84338	267.46292	-1601.87146	-749.48151	124.49487	-1557.36938	-793.74847	133.36836	-1515.61865	-635.61914	37.94361	-1539.74841	-264.27173	620.54199	-1296.09119	-212.92102	509.78735	-1331.22192	-177.37312	246.64799	-1335.59119	-128.41835	69.57377	-1378.76208	-157.54128	41.65394	-1427.15894	28.40471	61.42495	-1380.24902	-426.39044	1673.55859	-1465.14807	NaN	NaN	NaN	NaN	NaN	NaN	NaN	NaN	NaN	NaN	NaN	NaN
90	0.89	-307.19604	1640.42676	-1516.91528	-317.7196	1623.64038	-1386.047	-439.19406	1583.82654	-1529.38794	-448.22391	1572.81995	-1401.43115	-443.11063	1421.77686	-1474.55994	-464.60141	1091.17529	-1462.22168	-328.35797	1349.15735	-1469.98877	-283.38116	1175.42712	-1480.51514	-512.04169	1245.44702	-1403.3396	-383.79102	1379.97119	-1633.52832	-350.4158	1182.60571	-1709.16968	-324.03589	1073.98315	-1725.6748	-208.17097	984.18707	-1745.87256	-82.53358	964.40723	-1703.12366	-116.00195	909.34198	-1733.02759	-26.89684	895.95575	-1736.94751	-385.88699	1375.46875	-1309.63074	-461.40155	1187.22229	-1230.3783	-476.70395	1066.79553	-1214.5896	-492.91547	948.4549	-1190.97473	-463.64032	796.38464	-1204.27332	-523.2757	814.38763	-1176.54883	-509.35052	731.26611	-1166.07056	-296.94931	933.08069	-1583.18909	-275.49649	944.08923	-1362.62012	-451.34891	961.14673	-1534.84875	-427.79291	964.50366	-1367.78503	-423.48288	627.77332	-1628.14661	-466.98175	467.73715	-1605.36743	-640.25507	272.03543	-1601.12891	-742.18304	132.34293	-1558.15625	-785.53467	143.61261	-1516.43921	-634.78436	37.98752	-1539.50171	-247.7695	622.85132	-1296.6792	-197.41252	512.16589	-1331.58582	-164.3885	249.04614	-1332.33984	-121.74052	70.36876	-1376.72583	-154.05104	43.41647	-1424.46704	33.16953	56.98818	-1380.60303	-412.64029	1674.28589	-1463.89709	NaN	NaN	NaN	NaN	NaN	NaN	NaN	NaN	NaN	NaN	NaN	NaN
91	0.9	-293.42432	1642.32007	-1515.69604	-303.53015	1625.55872	-1384.82849	-425.23209	1585.29639	-1527.95911	-433.89679	1574.31311	-1399.97766	-428.53961	1423.29651	-1472.96436	-449.34955	1091.96741	-1462.42969	-313.77573	1350.83276	-1468.61499	-268.37827	1177.02588	-1479.32825	-497.23712	1245.93689	-1401.90918	-369.57339	1381.0719	-1632.43872	-336.56573	1183.18005	-1707.65625	-310.97382	1074.28015	-1724.14368	-195.37608	984.26886	-1744.40698	-69.84152	964.16461	-1701.70569	-103.37785	909.17664	-1731.72925	-14.28665	895.68445	-1735.47815	-371.05902	1376.50439	-1308.01489	-445.59744	1187.50598	-1228.55957	-459.70468	1066.92822	-1213.03662	-475.34399	948.42841	-1189.64014	-445.51157	796.57996	-1203.43774	-505.15842	814.34363	-1175.30554	-490.89575	731.42615	-1164.81763	-281.08859	933.76801	-1581.54297	-259.80881	945.79083	-1361.28125	-435.09482	962.14307	-1535.08228	-412.58957	967.15167	-1367.62732	-405.68356	627.2417	-1626.78735	-447.25858	466.76038	-1604.04309	-626.72668	277.1138	-1600.13281	-733.33704	141.27322	-1558.73669	-775.28186	154.95207	-1516.65808	-633.72974	38.08079	-1539.30212	-232.12564	626.1236	-1296.30359	-182.22714	515.47577	-1329.85803	-151.55223	252.38835	-1329.91797	-117.90935	69.95538	-1375.37964	-151.91833	44.65021	-1422.73962	35.89521	52.41965	-1379.98145	-398.94846	1675.81616	-1462.5426	NaN	NaN	NaN	NaN	NaN	NaN	NaN	NaN	NaN	NaN	NaN	NaN
92	0.91	-279.59695	1644.3252	-1514.42896	-289.29346	1627.68567	-1383.63696	-411.30637	1587.2677	-1526.42078	-419.62454	1576.39941	-1398.38428	-413.758	1425.47302	-1471.68152	-434.37064	1093.49463	-1462.54688	-299.41614	1352.80444	-1467.35449	-253.53885	1179.11536	-1478.06934	-482.36743	1247.40942	-1400.16797	-355.0538	1382.82996	-1631.29468	-323.06906	1184.43469	-1706.08813	-298.05154	1075.30542	-1722.70654	-183.32817	984.43671	-1742.74036	-57.87822	963.32758	-1700.34399	-91.82056	908.5965	-1730.39685	-2.71395	894.59113	-1734.07507	-356.21835	1378.0697	-1306.53906	-428.6409	1188.41931	-1227.18152	-442.21298	1067.49719	-1211.56189	-457.17462	948.93732	-1188.32629	-426.8877	797.26855	-1202.67358	-486.32431	814.65088	-1174.20447	-471.62036	732.1001	-1163.80554	-265.03787	935.07404	-1579.71191	-244.112	948.47253	-1359.9137	-418.89441	963.28833	-1535.60657	-397.68381	969.82263	-1368.2793	-386.87311	626.8255	-1625.13086	-425.58075	465.77759	-1603.09473	-611.3894	282.88089	-1599.04211	-722.56714	151.09503	-1558.70361	-762.61011	167.08328	-1516.00269	-632.55341	38.37899	-1539.11243	-216.80717	629.82739	-1295.24182	-167.5343	518.41547	-1328.61182	-141.49104	254.51665	-1328.16882	-116.74636	70.66566	-1374.46594	-151.11815	45.40084	-1421.59753	37.22031	48.09212	-1379.05481	-384.91309	1677.87134	-1461.15686	NaN	NaN	NaN	NaN	NaN	NaN	NaN	NaN	NaN	NaN	NaN	NaN
93	0.92	-265.54041	1646.22314	-1513.33215	-274.94107	1629.70764	-1382.47302	-397.39966	1589.37537	-1524.86096	-405.3248	1578.64526	-1396.69543	-399.23505	1427.52368	-1470.28931	-419.69418	1095.56567	-1462.34644	-285.00293	1354.91321	-1466.12512	-238.66864	1181.41016	-1476.94263	-467.43143	1249.49023	-1398.51099	-340.42288	1384.96436	-1629.97485	-309.76047	1186.30542	-1704.40112	-285.42484	1076.89795	-1720.85229	-171.55049	984.7406	-1741.58691	-46.69558	961.84619	-1698.91357	-81.1897	907.63458	-1729.05005	7.74409	892.75104	-1732.88464	-341.43936	1380.04553	-1305.32043	-412.00742	1189.77161	-1225.6084	-424.65778	1068.70325	-1210.32593	-438.22693	949.99945	-1187.22693	-407.50027	798.50128	-1201.94861	-466.80911	815.63135	-1172.729	-451.52509	732.85944	-1162.79333	-249.14761	936.82617	-1577.76477	-228.86227	951.87213	-1358.69482	-402.94897	964.62793	-1536.25	-383.10834	972.80145	-1369.10742	-367.52435	626.49512	-1623.97864	-402.57605	464.91614	-1602.5802	-594.00366	288.81635	-1597.6615	-709.80426	161.60234	-1558.74048	-747.63428	179.64514	-1514.81763	-630.85052	39.53454	-1539.04553	-201.56319	633.49158	-1294.04272	-153.66882	520.76593	-1327.78064	-134.95612	255.19122	-1326.2854	-115.24175	71.03105	-1374.36731	-150.15022	46.06921	-1421.05994	38.58672	45.58906	-1378.61023	-370.64133	1680.00171	-1459.70752	NaN	NaN	NaN	NaN	NaN	NaN	NaN	NaN	NaN	NaN	NaN	NaN
94	0.93	-251.54784	1648.08105	-1512.16479	-260.56873	1631.64465	-1381.25854	-383.51276	1591.44751	-1523.36194	-390.98843	1580.75818	-1395.13672	-384.87296	1429.29773	-1469.02478	-405.11057	1097.77026	-1462.06543	-270.69785	1356.98145	-1465.00427	-223.72348	1183.66663	-1475.89661	-452.38687	1251.71191	-1397.03809	-325.82965	1387.3219	-1628.56311	-296.492	1188.56128	-1702.6709	-272.71313	1079.16663	-1718.87207	-160.34491	984.87592	-1739.98767	-36.05531	959.97864	-1697.52637	-71.50301	906.26642	-1727.54651	17.19636	890.04395	-1731.72546	-326.69257	1382.2229	-1304.29492	-395.25131	1191.32886	-1224.1781	-406.67896	1070.27527	-1208.96497	-419.51926	951.44598	-1185.76428	-387.49576	800.12097	-1201.18152	-446.59607	816.83954	-1171.31433	-430.74225	734.08594	-1161.84302	-233.29492	938.7381	-1575.86255	-214.04962	955.51611	-1357.64026	-387.25751	966.04767	-1536.5769	-368.85223	975.59375	-1369.77966	-347.07205	626.09735	-1622.84631	-378.46213	463.96893	-1602.21472	-574.84668	294.98227	-1596.4801	-694.83496	171.9046	-1558.34985	-730.9317	192.57965	-1513.89282	-626.86823	42.8964	-1539.21704	-186.83893	636.74109	-1293.04871	-141.19867	522.28448	-1326.59436	-129.09464	255.55103	-1325.81506	-113.08183	71.25233	-1374.58936	-149.20248	46.81227	-1420.83276	40.09077	43.71079	-1379.2948	-356.40826	1682.04761	-1458.30286	NaN	NaN	NaN	NaN	NaN	NaN	NaN	NaN	NaN	NaN	NaN	NaN
